<?xml version="1.0" encoding="iso-8859-1"?>
<!-- Generator: Adobe Illustrator 17.0.2, SVG Export Plug-In . SVG Version: 6.00 Build 0)  -->
<!DOCTYPE svg PUBLIC "-//W3C//DTD SVG 1.1//EN" "http://www.w3.org/Graphics/SVG/1.1/DTD/svg11.dtd">
<svg version="1.1" id="Layer_1" xmlns="http://www.w3.org/2000/svg" xmlns:xlink="http://www.w3.org/1999/xlink" x="0px" y="0px"
	 width="100%" height="100%" viewBox="0 0 85 151" style="enable-background:new 0 0 85 151;" xml:space="preserve">
<g>
	<circle style="fill:#C96B6B;" cx="57.928" cy="23.623" r="11.346"/>
	<g>
		<g>
			
				<rect x="55.223" y="19.324" transform="matrix(0.9862 -0.1657 0.1657 0.9862 -2.9792 10.4027)" style="fill:#FFFFFF;" width="11.249" height="7.459"/>
			<g>
				<path style="fill:#C96B6B;" d="M67.06,26.083L56.189,27.91c-0.239,0.041-0.467-0.123-0.508-0.362l-1.168-6.955
					c-0.041-0.241,0.121-0.469,0.361-0.509l10.87-1.826c0.239-0.041,0.467,0.122,0.507,0.363l1.169,6.955
					C67.46,25.814,67.298,26.043,67.06,26.083z M54.995,20.799l1.073,6.394l3.269-3.835L54.995,20.799z M62.296,23.152l-0.502,0.598
					c-0.171,0.185-0.391,0.333-0.652,0.377c-0.261,0.043-0.519-0.024-0.739-0.144l-0.671-0.4l-3.291,3.837l10.22-1.716
					L62.296,23.152z M55.294,20.46l5.31,3.131c0.149,0.086,0.312,0.127,0.465,0.102c0.15-0.025,0.292-0.118,0.405-0.248l3.995-4.693
					L55.294,20.46z M65.864,18.974l-3.268,3.836l4.342,2.557L65.864,18.974z"/>
			</g>
		</g>
		
			<rect x="47.719" y="21.429" transform="matrix(-0.9862 0.1657 -0.1657 -0.9862 104.3744 35.0055)" style="fill:#FFFFFF;" width="6.016" height="0.857"/>
		
			<rect x="49.885" y="23.717" transform="matrix(-0.9862 0.1658 -0.1658 -0.9862 107.2996 39.3319)" style="fill:#FFFFFF;" width="4.246" height="0.857"/>
		
			<rect x="52.05" y="26.003" transform="matrix(-0.9862 0.1656 -0.1656 -0.9862 110.2182 43.6766)" style="fill:#FFFFFF;" width="2.478" height="0.857"/>
	</g>
</g>
<circle style="fill:#FB8A1C;" cx="57.928" cy="57.346" r="11.346"/>
<g id="lines__x003C_Group_x003E__12_">
	<circle id="circle_13_" style="fill:#FFFFFF;" cx="55.08" cy="60.109" r="1.399"/>
	<g>
		<path style="fill:#FFFFFF;" d="M53.684,56.584c1.311,0,2.543,0.512,3.468,1.442c0.927,0.932,1.437,2.172,1.437,3.492h2.02
			c0-3.834-3.106-6.953-6.925-6.953V56.584z"/>
	</g>
	<g>
		<path style="fill:#FFFFFF;" d="M53.687,53.004c4.67,0,8.469,3.82,8.469,8.516h2.019c0-5.809-4.705-10.535-10.488-10.535V53.004z"
			/>
	</g>
</g>
<circle style="fill:#1D679C;" cx="57.928" cy="90.578" r="11.346"/>
<path style="fill:#FFFFFF;" d="M58.989,97.468h-2.85v-6.889h-1.425v-2.375h1.425v-1.425c0-1.936,0.803-3.088,3.088-3.088h1.902
	v2.375h-1.188c-0.889,0-0.948,0.331-0.948,0.951l-0.004,1.188h2.155l-0.253,2.375h-1.902V97.468z"/>
<circle style="fill:#0DA7CB;" cx="57.928" cy="126.375" r="11.346"/>
<g>
	<g>
		<path style="fill:#FFFFFF;" d="M56.249,131.785c-0.055,0-0.084-0.002-0.084-0.002l-0.093,0.001c-2.292,0-3.779-1.128-3.841-1.176
			c-0.053-0.041-0.073-0.111-0.051-0.174c0.022-0.063,0.074-0.105,0.149-0.102c0.08,0.002,0.159,0.003,0.236,0.003h0
			c1.74,0,2.617-0.507,2.973-0.792c-1.826-0.41-2.138-1.737-2.151-1.796c-0.01-0.046,0.001-0.093,0.031-0.13
			c0.029-0.036,0.073-0.058,0.12-0.058h0.397c-1.501-0.842-1.35-2.307-1.348-2.324c0.006-0.054,0.041-0.101,0.091-0.123
			c0.05-0.022,0.108-0.016,0.152,0.015c0.179,0.128,0.375,0.187,0.546,0.212c-1.397-1.314-0.472-3.186-0.461-3.206
			c0.023-0.046,0.068-0.077,0.119-0.083c0.051-0.006,0.102,0.014,0.135,0.053c1.897,2.217,3.625,2.548,4.487,2.548
			c0.12,0,0.217-0.007,0.288-0.015c-0.207-2.507,1.539-2.893,1.557-2.897c0.302-0.065,0.605-0.098,0.899-0.098
			c1.14,0,1.874,0.484,2.104,0.661l1.371-0.555c0.052-0.021,0.111-0.012,0.154,0.023c0.044,0.035,0.065,0.091,0.056,0.146
			c-0.062,0.37-0.362,0.739-0.629,1.003l0.76-0.14c0.069-0.013,0.136,0.022,0.166,0.084c0.03,0.062,0.016,0.137-0.036,0.183
			l-1.261,1.128c0.032,0.538,0.076,1.665-0.432,2.871C60.754,131.556,56.985,131.785,56.249,131.785z"/>
	</g>
</g>
</svg>
